<svg width="11" height="11" viewBox="0 0 11 11" fill="none" xmlns="http://www.w3.org/2000/svg">
<path d="M10.0834 11.0005C9.84881 11.0005 9.61422 10.911 9.43524 10.7318L0.268619 1.56518C-0.0895396 1.20702 -0.0895396 0.626996 0.268619 0.269034C0.626581 -0.0889289 1.2068 -0.0891247 1.56476 0.269034L10.7314 9.43565C11.0895 9.79381 11.0895 10.3738 10.7314 10.7318C10.5524 10.911 10.318 11.0005 10.0834 11.0005V11.0005Z" fill="black"/>
<path d="M0.916593 11C0.681999 11 0.4476 10.9106 0.268619 10.7314C-0.0895396 10.3734 -0.0895396 9.7932 0.268619 9.43524L9.43524 0.268619C9.7934 -0.0895395 10.3734 -0.0895395 10.7314 0.268619C11.0893 0.626581 11.0895 1.2068 10.7314 1.56476L1.56476 10.7314C1.38578 10.9106 1.15119 11 0.916593 11V11Z" fill="black"/>
</svg>
